<svg width="24" height="24" viewBox="0 0 24 24" fill="none" xmlns="http://www.w3.org/2000/svg">
<path d="M11 4.00513H4C3.46957 4.00513 2.96086 4.21584 2.58579 4.59091C2.21071 4.96599 2 5.47469 2 6.00513V20.0051C2 20.5356 2.21071 21.0443 2.58579 21.4193C2.96086 21.7944 3.46957 22.0051 4 22.0051H18C18.5304 22.0051 19.0391 21.7944 19.4142 21.4193C19.7893 21.0443 20 20.5356 20 20.0051V13.0051" stroke="#FC9FCF" stroke-linecap="round" stroke-linejoin="round"/>
<path d="M18.5 2.50511C18.8978 2.10728 19.4374 1.88379 20 1.88379C20.5626 1.88379 21.1022 2.10728 21.5 2.50511C21.8978 2.90293 22.1213 3.4425 22.1213 4.00511C22.1213 4.56772 21.8978 5.10728 21.5 5.50511L12 15.0051L8 16.0051L9 12.0051L18.5 2.50511Z" stroke="#FC9FCF" stroke-linecap="round" stroke-linejoin="round"/>
</svg>
