<svg width="24" height="24" viewBox="0 0 24 24" fill="none" xmlns="http://www.w3.org/2000/svg">
<g clip-path="url(#clip0_244_165)">
<path d="M15.1875 15.1926C16.9479 15.1926 18.375 13.7655 18.375 12.0051C18.375 10.2447 16.9479 8.81763 15.1875 8.81763C13.4271 8.81763 12 10.2447 12 12.0051C12 13.7655 13.4271 15.1926 15.1875 15.1926Z" stroke="#FC9FCF" stroke-linecap="round" stroke-linejoin="round"/>
<path d="M12 8.81763V2.44263H8.8125C7.96712 2.44263 7.15637 2.77845 6.5586 3.37622C5.96082 3.974 5.625 4.78475 5.625 5.63013C5.625 6.4755 5.96082 7.28626 6.5586 7.88403C7.15637 8.4818 7.96712 8.81763 8.8125 8.81763H12Z" stroke="#FC9FCF" stroke-linecap="round" stroke-linejoin="round"/>
<path d="M12 15.1926V8.81763H8.8125C7.96712 8.81763 7.15637 9.15345 6.5586 9.75122C5.96082 10.349 5.625 11.1597 5.625 12.0051C5.625 12.8505 5.96082 13.6613 6.5586 14.259C7.15637 14.8568 7.96712 15.1926 8.8125 15.1926H12Z" stroke="#FC9FCF" stroke-linecap="round" stroke-linejoin="round"/>
<path d="M12 8.81763V2.44263H15.1875C16.0329 2.44263 16.8436 2.77845 17.4414 3.37622C18.0392 3.974 18.375 4.78475 18.375 5.63013C18.375 6.4755 18.0392 7.28626 17.4414 7.88403C16.8436 8.4818 16.0329 8.81763 15.1875 8.81763H12Z" stroke="#FC9FCF" stroke-linecap="round" stroke-linejoin="round"/>
<path d="M12 15.1926V18.3801C12 19.0106 11.8131 19.6268 11.4628 20.151C11.1126 20.6752 10.6147 21.0837 10.0323 21.325C9.44987 21.5662 8.80897 21.6294 8.19065 21.5064C7.57234 21.3834 7.00438 21.0798 6.5586 20.634C6.11282 20.1882 5.80924 19.6203 5.68625 19.002C5.56326 18.3837 5.62638 17.7428 5.86764 17.1603C6.10889 16.5779 6.51744 16.0801 7.04162 15.7298C7.5658 15.3796 8.18207 15.1926 8.8125 15.1926H12Z" stroke="#FC9FCF" stroke-linecap="round" stroke-linejoin="round"/>
</g>
<defs>
<clipPath id="clip0_244_165">
<rect width="24" height="24" fill="white" transform="translate(0 0.00512695)"/>
</clipPath>
</defs>
</svg>
