<svg width="100" height="101" viewBox="0 0 100 101" fill="none" xmlns="http://www.w3.org/2000/svg">
<path d="M64.8438 17.9836C69.4022 17.9836 73.7739 19.7945 76.9971 23.0177C80.2204 26.241 82.0312 30.6127 82.0312 35.1711V64.8586C82.0312 69.4171 80.2204 73.7888 76.9971 77.012C73.7739 80.2353 69.4022 82.0461 64.8438 82.0461H35.1562C30.5978 82.0461 26.2261 80.2353 23.0029 77.012C19.7796 73.7888 17.9688 69.4171 17.9688 64.8586V35.1711C17.9688 30.6127 19.7796 26.241 23.0029 23.0177C26.2261 19.7945 30.5978 17.9836 35.1562 17.9836H64.8438ZM64.8438 11.7336H35.1562C28.9459 11.7522 22.9953 14.2274 18.6039 18.6188C14.2126 23.0102 11.7373 28.9608 11.7188 35.1711V64.8586C11.7373 71.0689 14.2126 77.0196 18.6039 81.411C22.9953 85.8023 28.9459 88.2776 35.1562 88.2961H64.8438C71.0541 88.2776 77.0047 85.8023 81.3961 81.411C85.7874 77.0196 88.2627 71.0689 88.2812 64.8586V35.1711C88.2627 28.9608 85.7874 23.0102 81.3961 18.6188C77.0047 14.2274 71.0541 11.7522 64.8438 11.7336Z" fill="#FC9FCF"/>
<path d="M70.4219 25.0149C69.5365 25.0149 68.671 25.2774 67.9348 25.7693C67.1987 26.2612 66.6249 26.9604 66.2861 27.7783C65.9472 28.5963 65.8586 29.4964 66.0313 30.3648C66.2041 31.2332 66.6304 32.0308 67.2565 32.6569C67.8825 33.2829 68.6802 33.7093 69.5485 33.882C70.4169 34.0547 71.317 33.9661 72.135 33.6273C72.953 33.2884 73.6521 32.7147 74.144 31.9785C74.6359 31.2423 74.8984 30.3768 74.8984 29.4915C74.8984 28.9036 74.7826 28.3215 74.5577 27.7783C74.3327 27.2352 74.003 26.7417 73.5873 26.326C73.1716 25.9104 72.6781 25.5806 72.135 25.3556C71.5919 25.1307 71.0097 25.0149 70.4219 25.0149Z" fill="#FC9FCF"/>
<path d="M50.2109 36.3196C52.9435 36.3181 55.615 37.127 57.8877 38.6442C60.1603 40.1613 61.9319 42.3185 62.9783 44.8427C64.0247 47.3669 64.2989 50.1448 63.7662 52.8249C63.2335 55.505 61.9179 57.9668 59.9857 59.899C58.0535 61.8312 55.5916 63.1469 52.9115 63.6796C50.2314 64.2123 47.4536 63.9381 44.9293 62.8917C42.4051 61.8453 40.248 60.0737 38.7308 57.8011C37.2137 55.5284 36.4047 52.8568 36.4063 50.1243C36.4125 46.465 37.8689 42.9573 40.4564 40.3698C43.0439 37.7822 46.5516 36.3258 50.2109 36.3196ZM50.2109 30.0696C46.2443 30.0773 42.369 31.2607 39.0747 33.4703C35.7804 35.6798 33.215 38.8163 31.7027 42.4834C30.1905 46.1504 29.7992 50.1835 30.5784 54.0729C31.3575 57.9623 33.2721 61.5334 36.0802 64.335C38.8884 67.1365 42.464 69.0428 46.3551 69.8129C50.2463 70.583 54.2785 70.1823 57.942 68.6614C61.6055 67.1406 64.736 64.5679 66.9379 61.2685C69.1397 57.9691 70.314 54.091 70.3125 50.1243C70.3115 47.487 69.7905 44.8758 68.7794 42.4401C67.7682 40.0043 66.2868 37.7919 64.4198 35.9292C62.5528 34.0665 60.3368 32.5903 57.8987 31.5848C55.4606 30.5794 52.8482 30.0645 50.2109 30.0696Z" fill="#FC9FCF"/>
</svg>
