<svg width="191" height="32" viewBox="0 0 191 32" fill="none" xmlns="http://www.w3.org/2000/svg">
<path d="M149.818 0C149.818 1.16666 147.485 3.5 146.318 3.5C147.485 3.5 149.818 5.83333 149.818 7C149.818 5.83334 152.151 3.50001 153.318 3.50001C152.151 3.50001 149.818 1.16666 149.818 0Z" fill="#F664AF"/>
<path d="M40.8181 0C40.8181 1.16666 38.4848 3.5 37.3181 3.5C38.4848 3.5 40.8181 5.83333 40.8181 7C40.8181 5.83334 43.1514 3.50001 44.3181 3.50001C43.1515 3.50001 40.8181 1.16666 40.8181 0Z" fill="#F664AF"/>
<path d="M14.725 8.75599C14.5803 8.61133 14.3117 8.415 13.919 8.16699C13.547 7.919 13.082 7.68133 12.524 7.45399C11.9867 7.22666 11.3977 7.03033 10.757 6.86499C10.1163 6.67899 9.46533 6.58599 8.804 6.58599C7.64667 6.58599 6.76833 6.80299 6.169 7.237C5.59033 7.67099 5.301 8.28066 5.301 9.066C5.301 9.66533 5.487 10.1407 5.859 10.492C6.231 10.8433 6.789 11.143 7.533 11.391C8.277 11.639 9.207 11.9077 10.323 12.197C11.7697 12.5483 13.02 12.9823 14.074 13.499C15.1487 13.995 15.965 14.6563 16.523 15.483C17.1017 16.289 17.391 17.3637 17.391 18.707C17.391 19.885 17.174 20.8977 16.74 21.745C16.306 22.5717 15.7067 23.2433 14.942 23.76C14.1773 24.2767 13.3093 24.659 12.338 24.907C11.3667 25.1343 10.3333 25.248 9.238 25.248C8.14267 25.248 7.04733 25.1343 5.952 24.907C4.85667 24.6797 3.80267 24.3593 2.79 23.946C1.77733 23.512 0.847333 22.9953 0 22.396L1.891 18.707C2.077 18.893 2.40767 19.141 2.883 19.451C3.35833 19.7403 3.937 20.04 4.619 20.35C5.301 20.6393 6.045 20.8873 6.851 21.094C7.657 21.3007 8.47333 21.404 9.3 21.404C10.4573 21.404 11.3357 21.2077 11.935 20.815C12.5343 20.4223 12.834 19.8643 12.834 19.141C12.834 18.4797 12.5963 17.963 12.121 17.591C11.6457 17.219 10.9843 16.8987 10.137 16.63C9.28967 16.3407 8.28733 16.0307 7.13 15.7C5.74533 15.3073 4.588 14.8733 3.658 14.398C2.728 13.902 2.03567 13.282 1.581 12.538C1.12633 11.794 0.899 10.864 0.899 9.748C0.899 8.23933 1.25033 6.97866 1.953 5.966C2.67633 4.93266 3.64767 4.15766 4.867 3.641C6.08633 3.10366 7.44 2.83499 8.928 2.83499C9.96133 2.83499 10.9327 2.94866 11.842 3.17599C12.772 3.40333 13.64 3.703 14.446 4.075C15.252 4.447 15.9753 4.85 16.616 5.28399L14.725 8.75599Z" fill="#FC9FCF"/>
<path d="M35.2572 25H31.1032V15.886C31.1032 14.6253 30.8552 13.685 30.3592 13.065C29.8838 12.445 29.2225 12.135 28.3752 12.135C27.8792 12.135 27.3522 12.2797 26.7942 12.569C26.2362 12.8583 25.7298 13.2613 25.2752 13.778C24.8412 14.274 24.5208 14.8527 24.3142 15.514V25H20.1602V2.37H24.3142V11.763C24.9135 10.7297 25.7298 9.92366 26.7632 9.345C27.7965 8.76633 28.9228 8.47699 30.1422 8.47699C31.1962 8.47699 32.0538 8.66299 32.7152 9.03499C33.3765 9.38633 33.8932 9.87199 34.2652 10.492C34.6372 11.0913 34.8955 11.7733 35.0402 12.538C35.1848 13.282 35.2572 14.057 35.2572 14.863V25Z" fill="#FC9FCF"/>
<path d="M38.8692 25V8.75599H43.0232V25H38.8692Z" fill="#FC9FCF"/>
<path d="M61.8675 25H57.7135V15.886C57.7135 14.584 57.4862 13.6333 57.0315 13.034C56.5769 12.4347 55.9465 12.135 55.1405 12.135C54.5825 12.135 54.0142 12.2797 53.4355 12.569C52.8775 12.8583 52.3712 13.2613 51.9165 13.778C51.4619 14.274 51.1312 14.8527 50.9245 15.514V25H46.7705V8.75599H50.5215V11.763C50.9349 11.0603 51.4619 10.4713 52.1025 9.996C52.7432 9.5 53.4769 9.128 54.3035 8.87999C55.1509 8.61133 56.0395 8.47699 56.9695 8.47699C57.9822 8.47699 58.8089 8.66299 59.4495 9.03499C60.1109 9.38633 60.6069 9.87199 60.9375 10.492C61.2889 11.0913 61.5265 11.7733 61.6505 12.538C61.7952 13.3027 61.8675 14.0777 61.8675 14.863V25Z" fill="#FC9FCF"/>
<path d="M73.0125 25.31C71.7105 25.31 70.5325 25.093 69.4785 24.659C68.4245 24.2043 67.5255 23.5947 66.7815 22.83C66.0375 22.0447 65.4588 21.156 65.0455 20.164C64.6528 19.1513 64.4565 18.087 64.4565 16.971C64.4565 15.421 64.7975 14.0053 65.4795 12.724C66.1822 11.4427 67.1742 10.4197 68.4555 9.65499C69.7575 8.86966 71.2868 8.47699 73.0435 8.47699C74.8208 8.47699 76.3398 8.86966 77.6005 9.65499C78.8612 10.4197 79.8222 11.4427 80.4835 12.724C81.1655 13.9847 81.5065 15.3487 81.5065 16.816C81.5065 17.064 81.4962 17.3223 81.4755 17.591C81.4548 17.839 81.4342 18.0457 81.4135 18.211H68.8585C68.9412 19.0377 69.1788 19.761 69.5715 20.381C69.9848 21.001 70.5015 21.4763 71.1215 21.807C71.7622 22.117 72.4442 22.272 73.1675 22.272C73.9942 22.272 74.7692 22.0757 75.4925 21.683C76.2365 21.2697 76.7428 20.7323 77.0115 20.071L80.5765 21.063C80.1838 21.8897 79.6155 22.6233 78.8715 23.264C78.1482 23.9047 77.2905 24.411 76.2985 24.783C75.3065 25.1343 74.2112 25.31 73.0125 25.31ZM68.7655 15.576H77.2595C77.1768 14.7493 76.9392 14.0363 76.5465 13.437C76.1745 12.817 75.6785 12.3417 75.0585 12.011C74.4385 11.6597 73.7462 11.484 72.9815 11.484C72.2375 11.484 71.5555 11.6597 70.9355 12.011C70.3362 12.3417 69.8402 12.817 69.4475 13.437C69.0755 14.0363 68.8482 14.7493 68.7655 15.576Z" fill="#FC9FCF"/>
<path d="M91.8874 25V2.98999H99.8854C102.283 2.98999 104.287 3.48599 105.899 4.47799C107.511 5.44933 108.72 6.772 109.526 8.44599C110.332 10.0993 110.735 11.9387 110.735 13.964C110.735 16.196 110.291 18.1387 109.402 19.792C108.514 21.4453 107.253 22.7267 105.62 23.636C104.008 24.5453 102.097 25 99.8854 25H91.8874ZM106.426 13.964C106.426 12.538 106.168 11.2877 105.651 10.213C105.135 9.11766 104.391 8.27033 103.419 7.671C102.448 7.05099 101.27 6.74099 99.8854 6.74099H96.1654V21.249H99.8854C101.291 21.249 102.479 20.939 103.45 20.319C104.422 19.6783 105.155 18.8103 105.651 17.715C106.168 16.599 106.426 15.3487 106.426 13.964Z" fill="#FC9FCF"/>
<path d="M121.208 25.31C119.906 25.31 118.728 25.093 117.674 24.659C116.62 24.2043 115.721 23.5947 114.977 22.83C114.233 22.0447 113.654 21.156 113.241 20.164C112.848 19.1513 112.652 18.087 112.652 16.971C112.652 15.421 112.993 14.0053 113.675 12.724C114.377 11.4427 115.369 10.4197 116.651 9.65499C117.953 8.86966 119.482 8.47699 121.239 8.47699C123.016 8.47699 124.535 8.86966 125.796 9.65499C127.056 10.4197 128.017 11.4427 128.679 12.724C129.361 13.9847 129.702 15.3487 129.702 16.816C129.702 17.064 129.691 17.3223 129.671 17.591C129.65 17.839 129.629 18.0457 129.609 18.211H117.054C117.136 19.0377 117.374 19.761 117.767 20.381C118.18 21.001 118.697 21.4763 119.317 21.807C119.957 22.117 120.639 22.272 121.363 22.272C122.189 22.272 122.964 22.0757 123.688 21.683C124.432 21.2697 124.938 20.7323 125.207 20.071L128.772 21.063C128.379 21.8897 127.811 22.6233 127.067 23.264C126.343 23.9047 125.486 24.411 124.494 24.783C123.502 25.1343 122.406 25.31 121.208 25.31ZM116.961 15.576H125.455C125.372 14.7493 125.134 14.0363 124.742 13.437C124.37 12.817 123.874 12.3417 123.254 12.011C122.634 11.6597 121.941 11.484 121.177 11.484C120.433 11.484 119.751 11.6597 119.131 12.011C118.531 12.3417 118.035 12.817 117.643 13.437C117.271 14.0363 117.043 14.7493 116.961 15.576Z" fill="#FC9FCF"/>
<path d="M138.215 25.31C136.831 25.31 135.508 25.0827 134.247 24.628C132.987 24.1733 131.902 23.5017 130.992 22.613L132.48 19.916C133.452 20.7013 134.402 21.28 135.332 21.652C136.283 22.024 137.192 22.21 138.06 22.21C138.866 22.21 139.507 22.0653 139.982 21.776C140.478 21.4867 140.726 21.0527 140.726 20.474C140.726 20.0813 140.592 19.7817 140.323 19.575C140.055 19.3477 139.662 19.1513 139.145 18.986C138.649 18.8207 138.04 18.6347 137.316 18.428C136.118 18.0353 135.115 17.653 134.309 17.281C133.503 16.909 132.894 16.444 132.48 15.886C132.088 15.3073 131.891 14.5737 131.891 13.685C131.891 12.6103 132.16 11.6907 132.697 10.926C133.255 10.1407 134.02 9.531 134.991 9.097C135.983 8.66299 137.141 8.44599 138.463 8.44599C139.621 8.44599 140.716 8.63199 141.749 9.00399C142.783 9.35533 143.723 9.93399 144.57 10.74L142.896 13.375C142.07 12.7343 141.284 12.2693 140.54 11.98C139.796 11.67 139.042 11.515 138.277 11.515C137.843 11.515 137.43 11.5667 137.037 11.67C136.665 11.7733 136.355 11.949 136.107 12.197C135.88 12.4243 135.766 12.755 135.766 13.189C135.766 13.5817 135.87 13.8917 136.076 14.119C136.304 14.3257 136.634 14.5117 137.068 14.677C137.523 14.8423 138.071 15.0283 138.711 15.235C140.013 15.607 141.109 15.9893 141.997 16.382C142.907 16.7747 143.589 17.2603 144.043 17.839C144.498 18.397 144.725 19.172 144.725 20.164C144.725 21.776 144.136 23.0367 142.958 23.946C141.78 24.8553 140.199 25.31 138.215 25.31Z" fill="#FC9FCF"/>
<path d="M147.551 25V8.75599H151.705V25H147.551Z" fill="#FC9FCF"/>
<path d="M161.807 25.093C160.732 25.093 159.74 24.8863 158.831 24.473C157.942 24.039 157.167 23.4397 156.506 22.675C155.865 21.9103 155.369 21.032 155.018 20.04C154.667 19.048 154.491 17.994 154.491 16.878C154.491 15.7 154.677 14.6047 155.049 13.592C155.421 12.5793 155.938 11.6907 156.599 10.926C157.281 10.1407 158.077 9.54133 158.986 9.128C159.916 8.69399 160.939 8.47699 162.055 8.47699C163.316 8.47699 164.421 8.76633 165.372 9.345C166.323 9.903 167.108 10.6573 167.728 11.608V8.75599H171.355V24.225C171.355 25.837 170.963 27.2113 170.177 28.348C169.413 29.5053 168.348 30.3837 166.984 30.983C165.62 31.603 164.07 31.913 162.334 31.913C160.577 31.913 159.089 31.6133 157.87 31.014C156.651 30.4353 155.607 29.6087 154.739 28.534L157.002 26.333C157.622 27.0977 158.397 27.697 159.327 28.131C160.278 28.565 161.28 28.782 162.334 28.782C163.223 28.782 164.029 28.6167 164.752 28.286C165.496 27.976 166.085 27.48 166.519 26.798C166.974 26.1367 167.201 25.279 167.201 24.225V22.179C166.664 23.109 165.899 23.8323 164.907 24.349C163.936 24.845 162.902 25.093 161.807 25.093ZM163.202 21.776C163.657 21.776 164.091 21.7037 164.504 21.559C164.917 21.4143 165.3 21.218 165.651 20.97C166.003 20.722 166.312 20.4327 166.581 20.102C166.85 19.7507 167.057 19.3993 167.201 19.048V15.173C166.953 14.5323 166.602 13.9743 166.147 13.499C165.713 13.0237 165.217 12.662 164.659 12.414C164.122 12.1453 163.553 12.011 162.954 12.011C162.313 12.011 161.735 12.1453 161.218 12.414C160.702 12.6827 160.257 13.065 159.885 13.561C159.513 14.0363 159.224 14.5737 159.017 15.173C158.831 15.7517 158.738 16.3613 158.738 17.002C158.738 17.6633 158.852 18.2833 159.079 18.862C159.307 19.4407 159.617 19.947 160.009 20.381C160.423 20.815 160.898 21.156 161.435 21.404C161.993 21.652 162.582 21.776 163.202 21.776Z" fill="#FC9FCF"/>
<path d="M190.197 25H186.043V15.886C186.043 14.584 185.815 13.6333 185.361 13.034C184.906 12.4347 184.276 12.135 183.47 12.135C182.912 12.135 182.343 12.2797 181.765 12.569C181.207 12.8583 180.7 13.2613 180.246 13.778C179.791 14.274 179.46 14.8527 179.254 15.514V25H175.1V8.75599H178.851V11.763C179.264 11.0603 179.791 10.4713 180.432 9.996C181.072 9.5 181.806 9.128 182.633 8.87999C183.48 8.61133 184.369 8.47699 185.299 8.47699C186.311 8.47699 187.138 8.66299 187.779 9.03499C188.44 9.38633 188.936 9.87199 189.267 10.492C189.618 11.0913 189.856 11.7733 189.98 12.538C190.124 13.3027 190.197 14.0777 190.197 14.863V25Z" fill="#FC9FCF"/>
</svg>
