<svg width="212" height="64" viewBox="0 0 212 64" fill="none" xmlns="http://www.w3.org/2000/svg">
<path d="M0 50.6037V8.00058H15.48C20.12 8.00058 24 8.96065 27.12 10.8808C30.24 12.7609 32.58 15.3211 34.14 18.5614C35.7 21.7616 36.48 25.3218 36.48 29.2421C36.48 33.5625 35.62 37.3227 33.9 40.523C32.18 43.7232 29.74 46.2034 26.58 47.9635C23.46 49.7236 19.76 50.6037 15.48 50.6037H0ZM28.14 29.2421C28.14 26.4819 27.64 24.0618 26.64 21.9816C25.64 19.8614 24.2 18.2213 22.32 17.0612C20.44 15.8612 18.16 15.2611 15.48 15.2611H8.28V43.3432H15.48C18.2 43.3432 20.5 42.7431 22.38 41.543C24.26 40.3029 25.68 38.6228 26.64 36.5027C27.64 34.3425 28.14 31.9223 28.14 29.2421Z" fill="#FC9FCF"/>
<path d="M56.7492 51.2037C54.2292 51.2037 51.9492 50.7837 49.9092 49.9437C47.8692 49.0636 46.1292 47.8835 44.6892 46.4034C43.2492 44.8833 42.1292 43.1632 41.3292 41.243C40.5692 39.2829 40.1892 37.2227 40.1892 35.0626C40.1892 32.0623 40.8492 29.3221 42.1692 26.842C43.5292 24.3618 45.4492 22.3816 47.9292 20.9015C50.4492 19.3814 53.4092 18.6214 56.8092 18.6214C60.2492 18.6214 63.1892 19.3814 65.6292 20.9015C68.0692 22.3816 69.9292 24.3618 71.2092 26.842C72.5292 29.2821 73.1892 31.9223 73.1892 34.7625C73.1892 35.2426 73.1692 35.7426 73.1292 36.2626C73.0892 36.7427 73.0492 37.1427 73.0092 37.4627H48.7092C48.8692 39.0629 49.3292 40.463 50.0892 41.663C50.8892 42.8631 51.8892 43.7832 53.0892 44.4232C54.3292 45.0233 55.6492 45.3233 57.0492 45.3233C58.6492 45.3233 60.1492 44.9433 61.5492 44.1832C62.9892 43.3832 63.9692 42.3431 64.4892 41.063L71.3892 42.9831C70.6292 44.5833 69.5292 46.0034 68.0892 47.2435C66.6892 48.4835 65.0292 49.4636 63.1092 50.1837C61.1892 50.8637 59.0692 51.2037 56.7492 51.2037ZM48.5292 32.3624H64.9692C64.8092 30.7622 64.3492 29.3821 63.5892 28.2221C62.8692 27.022 61.9092 26.1019 60.7092 25.4619C59.5092 24.7818 58.1692 24.4418 56.6892 24.4418C55.2492 24.4418 53.9292 24.7818 52.7292 25.4619C51.5692 26.1019 50.6092 27.022 49.8492 28.2221C49.1292 29.3821 48.6892 30.7622 48.5292 32.3624Z" fill="#FC9FCF"/>
<path d="M89.6672 51.2037C86.9872 51.2037 84.4272 50.7637 81.9872 49.8837C79.5472 49.0036 77.4472 47.7035 75.6872 45.9834L78.5672 40.763C80.4472 42.2831 82.2872 43.4032 84.0872 44.1232C85.9272 44.8433 87.6872 45.2033 89.3672 45.2033C90.9272 45.2033 92.1672 44.9233 93.0872 44.3632C94.0472 43.8032 94.5272 42.9631 94.5272 41.8431C94.5272 41.083 94.2672 40.503 93.7472 40.1029C93.2272 39.6629 92.4672 39.2829 91.4672 38.9628C90.5072 38.6428 89.3272 38.2828 87.9272 37.8828C85.6072 37.1227 83.6672 36.3827 82.1072 35.6626C80.5472 34.9426 79.3672 34.0425 78.5672 32.9624C77.8072 31.8423 77.4272 30.4222 77.4272 28.7021C77.4272 26.6219 77.9472 24.8418 78.9872 23.3617C80.0672 21.8416 81.5472 20.6615 83.4272 19.8214C85.3472 18.9814 87.5872 18.5614 90.1472 18.5614C92.3872 18.5614 94.5072 18.9214 96.5072 19.6414C98.5072 20.3215 100.327 21.4416 101.967 23.0017L98.7272 28.1021C97.1272 26.862 95.6072 25.9619 94.1672 25.4019C92.7272 24.8018 91.2672 24.5018 89.7872 24.5018C88.9472 24.5018 88.1472 24.6018 87.3872 24.8018C86.6672 25.0018 86.0672 25.3419 85.5872 25.8219C85.1472 26.2619 84.9272 26.902 84.9272 27.742C84.9272 28.5021 85.1272 29.1021 85.5272 29.5422C85.9672 29.9422 86.6072 30.3022 87.4472 30.6222C88.3272 30.9423 89.3872 31.3023 90.6272 31.7023C93.1472 32.4224 95.2672 33.1624 96.9872 33.9225C98.7472 34.6825 100.067 35.6226 100.947 36.7427C101.827 37.8228 102.267 39.3229 102.267 41.243C102.267 44.3632 101.127 46.8034 98.8472 48.5636C96.5672 50.3237 93.5072 51.2037 89.6672 51.2037Z" fill="#FC9FCF"/>
<path d="M107.736 50.6037V19.1614H115.776V50.6037H107.736Z" fill="#FC9FCF"/>
<path d="M135.329 50.7837C133.249 50.7837 131.329 50.3837 129.569 49.5836C127.849 48.7436 126.349 47.5835 125.069 46.1034C123.829 44.6233 122.869 42.9231 122.189 41.003C121.509 39.0829 121.169 37.0427 121.169 34.8825C121.169 32.6024 121.529 30.4822 122.249 28.5221C122.969 26.5619 123.969 24.8418 125.249 23.3617C126.569 21.8416 128.109 20.6815 129.869 19.8815C131.669 19.0414 133.649 18.6214 135.809 18.6214C138.249 18.6214 140.389 19.1814 142.229 20.3015C144.069 21.3816 145.589 22.8417 146.789 24.6818V19.1614H153.809V49.1036C153.809 52.2238 153.049 54.884 151.529 57.0842C150.049 59.3243 147.989 61.0245 145.349 62.1845C142.709 63.3846 139.709 63.9847 136.349 63.9847C132.949 63.9847 130.069 63.4046 127.709 62.2446C125.349 61.1245 123.329 59.5244 121.649 57.4442L126.029 53.1839C127.229 54.664 128.729 55.8241 130.529 56.6641C132.369 57.5042 134.309 57.9242 136.349 57.9242C138.069 57.9242 139.629 57.6042 141.029 56.9642C142.469 56.3641 143.609 55.4041 144.449 54.084C145.329 52.8039 145.769 51.1437 145.769 49.1036V45.1433C144.729 46.9434 143.249 48.3435 141.329 49.3436C139.449 50.3037 137.449 50.7837 135.329 50.7837ZM138.029 44.3632C138.909 44.3632 139.749 44.2232 140.549 43.9432C141.349 43.6632 142.089 43.2832 142.769 42.8031C143.449 42.3231 144.049 41.7631 144.569 41.123C145.089 40.443 145.489 39.7629 145.769 39.0829V31.5823C145.289 30.3422 144.609 29.2621 143.729 28.3421C142.889 27.422 141.929 26.722 140.849 26.2419C139.809 25.7219 138.709 25.4619 137.549 25.4619C136.309 25.4619 135.189 25.7219 134.189 26.2419C133.189 26.762 132.329 27.502 131.609 28.4621C130.889 29.3821 130.329 30.4222 129.929 31.5823C129.569 32.7024 129.389 33.8825 129.389 35.1226C129.389 36.4027 129.609 37.6027 130.049 38.7228C130.489 39.8429 131.089 40.823 131.849 41.663C132.649 42.5031 133.569 43.1632 134.609 43.6432C135.689 44.1232 136.829 44.3632 138.029 44.3632Z" fill="#FC9FCF"/>
<path d="M190.276 50.6037H182.236V32.9624C182.236 30.4422 181.796 28.6021 180.916 27.442C180.036 26.2819 178.816 25.7019 177.256 25.7019C176.176 25.7019 175.076 25.9819 173.956 26.5419C172.876 27.102 171.896 27.882 171.016 28.8821C170.136 29.8422 169.496 30.9623 169.096 32.2424V50.6037H161.056V19.1614H168.316V24.9818C169.116 23.6217 170.136 22.4816 171.376 21.5616C172.616 20.6015 174.036 19.8814 175.636 19.4014C177.276 18.8814 178.996 18.6214 180.796 18.6214C182.756 18.6214 184.356 18.9814 185.596 19.7014C186.876 20.3815 187.836 21.3216 188.476 22.5216C189.156 23.6817 189.616 25.0018 189.856 26.4819C190.136 27.962 190.276 29.4622 190.276 30.9823V50.6037Z" fill="#FC9FCF"/>
<path d="M111.5 5.00037C111.5 6.66703 108.167 10.0004 106.5 10.0004C108.167 10.0004 111.5 13.3337 111.5 15.0004C111.5 13.3337 114.833 10.0004 116.5 10.0004C114.833 10.0004 111.5 6.66703 111.5 5.00037Z" fill="#FFF08C"/>
<path d="M196 0C196 3.33357 189.333 10.0007 186 10.0007C189.333 10.0007 196 16.6679 196 20.0015C196 16.6679 202.667 10.0008 206 10.0008C202.667 10.0008 196 3.33357 196 0Z" fill="#FFF08C"/>
<path d="M207 14.001C207 15.6677 203.667 19.001 202 19.001C203.667 19.001 207 22.3344 207 24.001C207 22.3344 210.333 19.0011 212 19.0011C210.333 19.0011 207 15.6677 207 14.001Z" fill="#FFF08C"/>
</svg>
