<svg width="202" height="32" viewBox="0 0 202 32" fill="none" xmlns="http://www.w3.org/2000/svg">
<path d="M150.5 0C150.5 1.16666 148.167 3.5 147 3.5C148.167 3.5 150.5 5.83333 150.5 7C150.5 5.83334 152.833 3.50001 154 3.50001C152.833 3.50001 150.5 1.16666 150.5 0Z" fill="#FC9FCF"/>
<path d="M41.5 0C41.5 1.16666 39.1667 3.5 38 3.5C39.1667 3.5 41.5 5.83333 41.5 7C41.5 5.83334 43.8333 3.50001 45 3.50001C43.8333 3.50001 41.5 1.16666 41.5 0Z" fill="#FC9FCF"/>
<path d="M194 1C194 2.66666 190.667 6 189 6C190.667 6 194 9.33332 194 11C194 9.33334 197.333 6.00002 199 6.00002C197.333 6.00002 194 2.66666 194 1Z" fill="#FFF08C"/>
<path d="M199.5 8C199.5 8.83333 197.833 10.5 197 10.5C197.833 10.5 199.5 12.1667 199.5 13C199.5 12.1667 201.167 10.5 202 10.5C201.167 10.5 199.5 8.83333 199.5 8Z" fill="#FFF08C"/>
<path d="M15.4069 8.75599C15.2622 8.61133 14.9936 8.415 14.6009 8.16699C14.2289 7.919 13.7639 7.68133 13.2059 7.45399C12.6686 7.22666 12.0796 7.03033 11.4389 6.86499C10.7982 6.67899 10.1472 6.58599 9.48589 6.58599C8.32855 6.58599 7.45022 6.80299 6.85089 7.237C6.27222 7.67099 5.98288 8.28066 5.98288 9.066C5.98288 9.66533 6.16888 10.1407 6.54088 10.492C6.91289 10.8433 7.47089 11.143 8.21489 11.391C8.95889 11.639 9.88889 11.9077 11.0049 12.197C12.4516 12.5483 13.7019 12.9823 14.7559 13.499C15.8306 13.995 16.6469 14.6563 17.2049 15.483C17.7836 16.289 18.0729 17.3637 18.0729 18.707C18.0729 19.885 17.8559 20.8977 17.4219 21.745C16.9879 22.5717 16.3886 23.2433 15.6239 23.76C14.8592 24.2767 13.9912 24.659 13.0199 24.907C12.0486 25.1343 11.0152 25.248 9.91989 25.248C8.82455 25.248 7.72922 25.1343 6.63389 24.907C5.53855 24.6797 4.48455 24.3593 3.47188 23.946C2.45922 23.512 1.52922 22.9953 0.681885 22.396L2.57288 18.707C2.75888 18.893 3.08955 19.141 3.56488 19.451C4.04022 19.7403 4.61888 20.04 5.30088 20.35C5.98288 20.6393 6.72688 20.8873 7.53289 21.094C8.33888 21.3007 9.15522 21.404 9.98189 21.404C11.1392 21.404 12.0176 21.2077 12.6169 20.815C13.2162 20.4223 13.5159 19.8643 13.5159 19.141C13.5159 18.4797 13.2782 17.963 12.8029 17.591C12.3276 17.219 11.6662 16.8987 10.8189 16.63C9.97155 16.3407 8.96922 16.0307 7.81188 15.7C6.42722 15.3073 5.26988 14.8733 4.33988 14.398C3.40988 13.902 2.71755 13.282 2.26288 12.538C1.80822 11.794 1.58088 10.864 1.58088 9.748C1.58088 8.23933 1.93222 6.97866 2.63488 5.966C3.35822 4.93266 4.32955 4.15766 5.54888 3.641C6.76822 3.10366 8.12189 2.83499 9.60989 2.83499C10.6432 2.83499 11.6146 2.94866 12.5239 3.17599C13.4539 3.40333 14.3219 3.703 15.1279 4.075C15.9339 4.447 16.6572 4.85 17.2979 5.28399L15.4069 8.75599Z" fill="#FC9FCF"/>
<path d="M35.9391 25H31.7851V15.886C31.7851 14.6253 31.5371 13.685 31.0411 13.065C30.5657 12.445 29.9044 12.135 29.0571 12.135C28.5611 12.135 28.0341 12.2797 27.4761 12.569C26.9181 12.8583 26.4117 13.2613 25.9571 13.778C25.5231 14.274 25.2027 14.8527 24.9961 15.514V25H20.8421V2.37H24.9961V11.763C25.5954 10.7297 26.4117 9.92366 27.4451 9.345C28.4784 8.76633 29.6047 8.47699 30.8241 8.47699C31.8781 8.47699 32.7357 8.66299 33.3971 9.03499C34.0584 9.38633 34.5751 9.87199 34.9471 10.492C35.3191 11.0913 35.5774 11.7733 35.7221 12.538C35.8667 13.282 35.9391 14.057 35.9391 14.863V25Z" fill="#FC9FCF"/>
<path d="M39.551 25V8.75599H43.705V25H39.551Z" fill="#FC9FCF"/>
<path d="M62.5494 25H58.3954V15.886C58.3954 14.584 58.1681 13.6333 57.7134 13.034C57.2587 12.4347 56.6284 12.135 55.8224 12.135C55.2644 12.135 54.6961 12.2797 54.1174 12.569C53.5594 12.8583 53.0531 13.2613 52.5984 13.778C52.1437 14.274 51.8131 14.8527 51.6064 15.514V25H47.4524V8.75599H51.2034V11.763C51.6167 11.0603 52.1437 10.4713 52.7844 9.996C53.4251 9.5 54.1587 9.12799 54.9854 8.87999C55.8327 8.61133 56.7214 8.47699 57.6514 8.47699C58.6641 8.47699 59.4907 8.66299 60.1314 9.03499C60.7927 9.38633 61.2887 9.87199 61.6194 10.492C61.9707 11.0913 62.2084 11.7733 62.3324 12.538C62.4771 13.3027 62.5494 14.0777 62.5494 14.863V25Z" fill="#FC9FCF"/>
<path d="M73.6944 25.31C72.3924 25.31 71.2144 25.093 70.1604 24.659C69.1064 24.2043 68.2074 23.5947 67.4634 22.83C66.7194 22.0447 66.1407 21.156 65.7274 20.164C65.3347 19.1513 65.1384 18.087 65.1384 16.971C65.1384 15.421 65.4794 14.0053 66.1614 12.724C66.8641 11.4427 67.8561 10.4197 69.1374 9.65499C70.4394 8.86966 71.9687 8.47699 73.7254 8.47699C75.5027 8.47699 77.0217 8.86966 78.2824 9.65499C79.5431 10.4197 80.5041 11.4427 81.1654 12.724C81.8474 13.9847 82.1884 15.3487 82.1884 16.816C82.1884 17.064 82.1781 17.3223 82.1574 17.591C82.1367 17.839 82.1161 18.0457 82.0954 18.211H69.5404C69.6231 19.0377 69.8607 19.761 70.2534 20.381C70.6667 21.001 71.1834 21.4763 71.8034 21.807C72.4441 22.117 73.1261 22.272 73.8494 22.272C74.6761 22.272 75.4511 22.0757 76.1744 21.683C76.9184 21.2697 77.4247 20.7323 77.6934 20.071L81.2584 21.063C80.8657 21.8897 80.2974 22.6233 79.5534 23.264C78.8301 23.9047 77.9724 24.411 76.9804 24.783C75.9884 25.1343 74.8931 25.31 73.6944 25.31ZM69.4474 15.576H77.9414C77.8587 14.7493 77.6211 14.0363 77.2284 13.437C76.8564 12.817 76.3604 12.3417 75.7404 12.011C75.1204 11.6597 74.4281 11.484 73.6634 11.484C72.9194 11.484 72.2374 11.6597 71.6174 12.011C71.0181 12.3417 70.5221 12.817 70.1294 13.437C69.7574 14.0363 69.5301 14.7493 69.4474 15.576Z" fill="#FC9FCF"/>
<path d="M92.5693 25V2.98999H100.567C102.965 2.98999 104.969 3.48599 106.581 4.47799C108.193 5.44933 109.402 6.77199 110.208 8.44599C111.014 10.0993 111.417 11.9387 111.417 13.964C111.417 16.196 110.973 18.1387 110.084 19.792C109.196 21.4453 107.935 22.7267 106.302 23.636C104.69 24.5453 102.779 25 100.567 25H92.5693ZM107.108 13.964C107.108 12.538 106.85 11.2877 106.333 10.213C105.817 9.11766 105.073 8.27033 104.101 7.671C103.13 7.05099 101.952 6.74099 100.567 6.74099H96.8473V21.249H100.567C101.973 21.249 103.161 20.939 104.132 20.319C105.104 19.6783 105.837 18.8103 106.333 17.715C106.85 16.599 107.108 15.3487 107.108 13.964Z" fill="#FC9FCF"/>
<path d="M121.89 25.31C120.588 25.31 119.41 25.093 118.356 24.659C117.302 24.2043 116.403 23.5947 115.659 22.83C114.915 22.0447 114.336 21.156 113.923 20.164C113.53 19.1513 113.334 18.087 113.334 16.971C113.334 15.421 113.675 14.0053 114.357 12.724C115.059 11.4427 116.051 10.4197 117.333 9.65499C118.635 8.86966 120.164 8.47699 121.921 8.47699C123.698 8.47699 125.217 8.86966 126.478 9.65499C127.738 10.4197 128.699 11.4427 129.361 12.724C130.043 13.9847 130.384 15.3487 130.384 16.816C130.384 17.064 130.373 17.3223 130.353 17.591C130.332 17.839 130.311 18.0457 130.291 18.211H117.736C117.818 19.0377 118.056 19.761 118.449 20.381C118.862 21.001 119.379 21.4763 119.999 21.807C120.639 22.117 121.321 22.272 122.045 22.272C122.871 22.272 123.646 22.0757 124.37 21.683C125.114 21.2697 125.62 20.7323 125.889 20.071L129.454 21.063C129.061 21.8897 128.493 22.6233 127.749 23.264C127.025 23.9047 126.168 24.411 125.176 24.783C124.184 25.1343 123.088 25.31 121.89 25.31ZM117.643 15.576H126.137C126.054 14.7493 125.816 14.0363 125.424 13.437C125.052 12.817 124.556 12.3417 123.936 12.011C123.316 11.6597 122.623 11.484 121.859 11.484C121.115 11.484 120.433 11.6597 119.813 12.011C119.213 12.3417 118.717 12.817 118.325 13.437C117.953 14.0363 117.725 14.7493 117.643 15.576Z" fill="#FC9FCF"/>
<path d="M138.897 25.31C137.513 25.31 136.19 25.0827 134.929 24.628C133.669 24.1733 132.584 23.5017 131.674 22.613L133.162 19.916C134.134 20.7013 135.084 21.28 136.014 21.652C136.965 22.024 137.874 22.21 138.742 22.21C139.548 22.21 140.189 22.0653 140.664 21.776C141.16 21.4867 141.408 21.0527 141.408 20.474C141.408 20.0813 141.274 19.7817 141.005 19.575C140.737 19.3477 140.344 19.1513 139.827 18.986C139.331 18.8207 138.722 18.6347 137.998 18.428C136.8 18.0353 135.797 17.653 134.991 17.281C134.185 16.909 133.576 16.444 133.162 15.886C132.77 15.3073 132.573 14.5737 132.573 13.685C132.573 12.6103 132.842 11.6907 133.379 10.926C133.937 10.1407 134.702 9.531 135.673 9.097C136.665 8.66299 137.823 8.44599 139.145 8.44599C140.303 8.44599 141.398 8.63199 142.431 9.00399C143.465 9.35533 144.405 9.93399 145.252 10.74L143.578 13.375C142.752 12.7343 141.966 12.2693 141.222 11.98C140.478 11.67 139.724 11.515 138.959 11.515C138.525 11.515 138.112 11.5667 137.719 11.67C137.347 11.7733 137.037 11.949 136.789 12.197C136.562 12.4243 136.448 12.755 136.448 13.189C136.448 13.5817 136.552 13.8917 136.758 14.119C136.986 14.3257 137.316 14.5117 137.75 14.677C138.205 14.8423 138.753 15.0283 139.393 15.235C140.695 15.607 141.791 15.9893 142.679 16.382C143.589 16.7747 144.271 17.2603 144.725 17.839C145.18 18.397 145.407 19.172 145.407 20.164C145.407 21.776 144.818 23.0367 143.64 23.946C142.462 24.8553 140.881 25.31 138.897 25.31Z" fill="#FC9FCF"/>
<path d="M148.233 25V8.75599H152.387V25H148.233Z" fill="#FC9FCF"/>
<path d="M162.489 25.093C161.414 25.093 160.422 24.8863 159.513 24.473C158.624 24.039 157.849 23.4397 157.188 22.675C156.547 21.9103 156.051 21.032 155.7 20.04C155.349 19.048 155.173 17.994 155.173 16.878C155.173 15.7 155.359 14.6047 155.731 13.592C156.103 12.5793 156.62 11.6907 157.281 10.926C157.963 10.1407 158.759 9.54133 159.668 9.128C160.598 8.69399 161.621 8.47699 162.737 8.47699C163.998 8.47699 165.103 8.76633 166.054 9.345C167.005 9.903 167.79 10.6573 168.41 11.608V8.75599H172.037V24.225C172.037 25.837 171.644 27.2113 170.859 28.348C170.094 29.5053 169.03 30.3837 167.666 30.983C166.302 31.603 164.752 31.913 163.016 31.913C161.259 31.913 159.771 31.6133 158.552 31.014C157.333 30.4353 156.289 29.6087 155.421 28.534L157.684 26.333C158.304 27.0977 159.079 27.697 160.009 28.131C160.96 28.565 161.962 28.782 163.016 28.782C163.905 28.782 164.711 28.6167 165.434 28.286C166.178 27.976 166.767 27.48 167.201 26.798C167.656 26.1367 167.883 25.279 167.883 24.225V22.179C167.346 23.109 166.581 23.8323 165.589 24.349C164.618 24.845 163.584 25.093 162.489 25.093ZM163.884 21.776C164.339 21.776 164.773 21.7037 165.186 21.559C165.599 21.4143 165.982 21.218 166.333 20.97C166.684 20.722 166.994 20.4327 167.263 20.102C167.532 19.7507 167.738 19.3993 167.883 19.048V15.173C167.635 14.5323 167.284 13.9743 166.829 13.499C166.395 13.0237 165.899 12.662 165.341 12.414C164.804 12.1453 164.235 12.011 163.636 12.011C162.995 12.011 162.417 12.1453 161.9 12.414C161.383 12.6827 160.939 13.065 160.567 13.561C160.195 14.0363 159.906 14.5737 159.699 15.173C159.513 15.7517 159.42 16.3613 159.42 17.002C159.42 17.6633 159.534 18.2833 159.761 18.862C159.988 19.4407 160.298 19.947 160.691 20.381C161.104 20.815 161.58 21.156 162.117 21.404C162.675 21.652 163.264 21.776 163.884 21.776Z" fill="#FC9FCF"/>
<path d="M190.879 25H186.725V15.886C186.725 14.584 186.497 13.6333 186.043 13.034C185.588 12.4347 184.958 12.135 184.152 12.135C183.594 12.135 183.025 12.2797 182.447 12.569C181.889 12.8583 181.382 13.2613 180.928 13.778C180.473 14.274 180.142 14.8527 179.936 15.514V25H175.782V8.75599H179.533V11.763C179.946 11.0603 180.473 10.4713 181.114 9.996C181.754 9.5 182.488 9.12799 183.315 8.87999C184.162 8.61133 185.051 8.47699 185.981 8.47699C186.993 8.47699 187.82 8.66299 188.461 9.03499C189.122 9.38633 189.618 9.87199 189.949 10.492C190.3 11.0913 190.538 11.7733 190.662 12.538C190.806 13.3027 190.879 14.0777 190.879 14.863V25Z" fill="#FC9FCF"/>
</svg>
