<svg width="24" height="24" viewBox="0 0 24 24" fill="none" xmlns="http://www.w3.org/2000/svg">
<path d="M21.9999 16.9251V19.9251C22.0011 20.2036 21.944 20.4793 21.8324 20.7344C21.7209 20.9896 21.5572 21.2187 21.352 21.407C21.1468 21.5952 20.9045 21.7386 20.6407 21.8278C20.3769 21.917 20.0973 21.9502 19.8199 21.9251C16.7428 21.5907 13.7869 20.5392 11.1899 18.8551C8.77376 17.3198 6.72527 15.2713 5.18993 12.8551C3.49991 10.2463 2.44818 7.2761 2.11993 4.1851C2.09494 3.90857 2.12781 3.62986 2.21643 3.36673C2.30506 3.10359 2.4475 2.86179 2.6347 2.65672C2.82189 2.45165 3.04974 2.28781 3.30372 2.17562C3.55771 2.06344 3.83227 2.00536 4.10993 2.0051H7.10993C7.59524 2.00033 8.06572 2.17218 8.43369 2.48863C8.80166 2.80509 9.04201 3.24455 9.10993 3.7251C9.23656 4.68517 9.47138 5.62783 9.80993 6.5351C9.94448 6.89303 9.9736 7.28202 9.89384 7.65598C9.81408 8.02995 9.6288 8.37321 9.35993 8.6451L8.08993 9.9151C9.51349 12.4186 11.5864 14.4915 14.0899 15.9151L15.3599 14.6451C15.6318 14.3762 15.9751 14.191 16.3491 14.1112C16.723 14.0314 17.112 14.0606 17.4699 14.1951C18.3772 14.5337 19.3199 14.7685 20.2799 14.8951C20.7657 14.9636 21.2093 15.2083 21.5265 15.5826C21.8436 15.9569 22.0121 16.4347 21.9999 16.9251Z" stroke="#FC9FCF" stroke-linecap="round" stroke-linejoin="round"/>
</svg>
